<svg width="1458" height="4000" viewBox="0 0 1458 4000" fill="none" xmlns="http://www.w3.org/2000/svg">
<g clip-path="url(#clip0)">
<rect width="1458" height="4000" fill="#E0E7E9"/>
<ellipse cx="1055" cy="3372.5" rx="11" ry="12.5" fill="#C4C4C4"/>
<ellipse cx="1097" cy="3372.5" rx="11" ry="12.5" fill="#C4C4C4"/>
<ellipse cx="1149" cy="3372.5" rx="11" ry="12.5" fill="#C4C4C4"/>
<ellipse cx="1201" cy="3372.5" rx="11" ry="12.5" fill="#C4C4C4"/>
<ellipse cx="1201" cy="3412.5" rx="11" ry="12.5" fill="#C4C4C4"/>
<ellipse cx="1149" cy="3412.5" rx="11" ry="12.5" fill="#C4C4C4"/>
<ellipse cx="1097" cy="3412.5" rx="11" ry="12.5" fill="#C4C4C4"/>
<ellipse cx="1055" cy="3412.5" rx="11" ry="12.5" fill="#C4C4C4"/>
<ellipse cx="1055" cy="3452.5" rx="11" ry="12.5" fill="#C4C4C4"/>
<ellipse cx="1108" cy="3452.5" rx="11" ry="12.5" fill="#C4C4C4"/>
<ellipse cx="1160" cy="3452.5" rx="11" ry="12.5" fill="#C4C4C4"/>
<ellipse cx="1201" cy="3452.5" rx="11" ry="12.5" fill="#C4C4C4"/>
<path d="M870.898 3674.66C772.336 3491.48 357.411 3597.55 20 3717.7V4000H780.709H1478V3628.18C1478 3628.18 935.433 3794.6 870.898 3674.66Z" fill="url(#paint0_linear)"/>
</g>
<defs>
<linearGradient id="paint0_linear" x1="735.62" y1="3657.46" x2="735.62" y2="4007.16" gradientUnits="userSpaceOnUse">
<stop stop-color="#30CFD0"/>
<stop offset="1" stop-color="#330867" stop-opacity="0.94"/>
</linearGradient>
<clipPath id="clip0">
<rect width="1458" height="4000" fill="white"/>
</clipPath>
</defs>
</svg>
